<svg xmlns="http://www.w3.org/2000/svg" xmlns:xlink="http://www.w3.org/1999/xlink" version="1.1" x="0px" y="0px" viewBox="0 0 518.856 353.23125" style="enable-background:new 0 0 518.856 282.585;" xml:space="preserve"><g><path d="M30.487,245.114l5.051-1.931l-13.047,17.237c-4.167,5.504-3.082,13.344,2.423,17.511c2.257,1.708,4.906,2.534,7.535,2.534   c3.781,0,7.518-1.709,9.976-4.957l19.414-25.649l-14.347-38.01l-6.797,2.598c1.481-2.827,3.05-5.596,4.653-8.279l-9.187-24.338   c-0.962-2.549-0.875-5.32,0.248-7.803s3.144-4.38,5.693-5.342c1.159-0.438,2.371-0.66,3.602-0.66c4.218,0,8.053,2.652,9.543,6.601   l3.787,10.032c4.072-7.868,3.883-17.659-2.252-22.058c-7.149-5.129-20.362-5.385-30.444,6.366   C12.568,185.206,6.363,196.87,0.57,218.472c-3.033,16.12,6.614,21.727,15.175,25c2.578,0.986,4.755,1.725,6.66,1.919   C24.967,246.168,27.793,246.144,30.487,245.114z"/><path d="M81.819,223.464c3.367-4.448,3.379-10.588,0.029-15.049s-9.25-6.163-14.459-4.171l-0.842,0.322l9.841,26.073   L81.819,223.464z"/><path d="M42.878,170.744c-4.133,1.56-6.22,6.176-4.659,10.31l34.64,91.771c1.209,3.203,4.253,5.177,7.486,5.177   c0.938,0,1.894-0.166,2.824-0.518c4.133-1.56,6.22-6.176,4.659-10.31l-34.64-91.771C51.627,171.27,47.012,169.181,42.878,170.744z"/><path d="M101.208,137.01c-2.295-5.235-6.57-9.604-12.302-11.879c-11.549-4.585-24.63,1.062-29.214,12.611   c-4.586,11.551,1.062,24.63,12.611,29.214c10.595,4.206,22.47-0.2,27.902-9.871c-1.848-0.845-3.757-1.837-5.677-2.968   c-10.047-5.918-16.637-13.391-14.971-16.888c0.14,3.779,7.447,9.541,17.49,13.527c7.579,3.009,14.729,4.22,18.94,3.492   c1.921-0.332,3.231-1.067,3.689-2.22c1.397-3.52-5.661-9.65-15.942-14.011c-0.463-0.196-0.923-0.394-1.398-0.583   C101.957,137.285,101.583,137.151,101.208,137.01z"/><path d="M322.842,187.089c-4.954-7.268-17.427-6.661-25.769-0.519c-12.18,7.422-29.325,18.939-46.25,22.737   c-13.372,4.062-12.878,8.236-9.81,16.872c0.045,0.127,0.092,0.254,0.138,0.381c-24.922,9.361-58.768,21.393-88.519,29.621   c-6.654,1.84-10.556,8.726-8.716,15.379c1.532,5.54,6.56,9.171,12.041,9.171c1.103,0,2.224-0.147,3.338-0.455   c56.471-15.616,124.667-43.504,127.542-44.684c0.857-0.352,1.649-0.794,2.381-1.301c3.543-1.573,6.908-3.322,10.251-5.322V198.82   c0-5.625,4.576-10.2,10.2-10.2s10.2,4.576,10.2,10.2v14.532C327.662,204.202,327.148,193.402,322.842,187.089z"/><path d="M374.916,195.598c0.942-5.636-0.243-11.631-3.797-16.672c-7.16-10.156-21.198-12.585-31.353-5.425   c-10.158,7.161-12.585,21.199-5.426,31.354c6.567,9.315,18.908,12.106,28.745,6.984c-1.081-1.713-2.133-3.583-3.118-5.573   c-5.171-10.448-6.6-20.307-3.295-22.323c-1.948,3.244,1.017,12.061,7.24,20.889c4.698,6.665,10.022,11.59,13.945,13.284   c1.79,0.773,3.289,0.874,4.302,0.159c3.093-2.181,0.54-11.173-5.68-20.448c-0.28-0.418-0.558-0.836-0.853-1.254   C375.394,196.24,375.154,195.922,374.916,195.598z"/><path d="M317.669,198.82c0-4.418-3.582-8-8-8s-8,3.582-8,8v74.167c0,4.418,3.582,8,8,8s8-3.582,8-8V198.82z"/><path d="M457.158,281.803c1.432,0.53,2.897,0.782,4.34,0.782c5.08,0,9.856-3.12,11.723-8.162   c19.169-51.756,26.432-103.403,27.408-110.806c3.43-20.741,2.598-33.754-2.851-53.599c-1.212-4.314-3.099-7.803-5.361-10.577   c-2.182,9.366-3.791,15.227-3.986,15.931c-1.219,4.404-5.259,7.48-9.825,7.48c-0.917,0-1.833-0.125-2.724-0.371   c-5.42-1.5-8.61-7.13-7.112-12.55c0.052-0.189,1.988-7.247,4.545-18.582c-0.152,0.024-0.311,0.034-0.461,0.062   c-8.643,1.636-13.072,13.311-10.777,23.413c1.934,14.131,5.637,34.451,2.352,51.483c-1.388,11.881,1.363,14.482,7.915,15.387   c-3.808,20.515-10.915,52.586-22.566,84.045C447.379,272.214,450.684,279.406,457.158,281.803z"/><path d="M476.421,56.668c0.537,0.944,1.669,1.76,3.273,2.419c0.952-5.616,1.864-11.504,2.686-17.56   c-1.065-0.045-2.146-0.018-3.238,0.093c-12.362,1.253-21.369,12.291-20.116,24.653c0.933,9.209,7.296,16.551,15.589,19.183   c1.56-7.247,3.256-15.755,4.854-25.045C477.57,59.264,476.467,57.983,476.421,56.668z"/><path d="M503.892,64.773c-1.428,0.072-2.919,0.088-4.451,0.053c-0.974,5.622-1.98,10.951-2.971,15.892   C500.898,76.722,503.686,71.019,503.892,64.773z"/><path d="M500.194,60.374c7.229-0.962,13.284-3.022,16.399-5.39c1.552-1.18,2.376-2.436,2.25-3.67   c-0.334-3.287-7.303-5.371-16.471-5.273C501.691,50.957,500.958,55.752,500.194,60.374z"/><path d="M476.467,120.361c0.714,0.197,1.432,0.292,2.138,0.292c3.506,0,6.724-2.323,7.705-5.867   c0.605-2.184,14.841-54.099,17.522-106.376c0.226-4.413-3.167-8.173-7.58-8.399c-4.412-0.219-8.173,3.167-8.399,7.58   c-2.588,50.474-16.819,102.409-16.963,102.928C469.713,114.776,472.21,119.183,476.467,120.361z"/><polygon points="170.468,204.576 180.544,194.5 170.468,184.424 170.468,192.5 137.506,192.5 137.506,196.5 170.468,196.5  "/><polygon points="432.968,160.076 443.044,150 432.968,139.924 432.968,148 400.006,148 400.006,152 432.968,152  "/></g></svg>