<svg xmlns="http://www.w3.org/2000/svg" xmlns:xlink="http://www.w3.org/1999/xlink" version="1.1" x="0px" y="0px" viewBox="0 0 321.023 294.3775" style="enable-background:new 0 0 321.023 235.502;" xml:space="preserve"><g><path d="M260.536,121.643l0.016,0.162c0.04,0.676,0.068,1.321,0.086,1.938l6.861,12.699l17.603,1.452l-1.57,43.573   c-0.248,6.899,5.143,12.693,12.042,12.942c0.153,0.005,0.306,0.008,0.458,0.008c6.695,0,12.241-5.305,12.484-12.05l2-55.5   c0.24-6.675-4.809-12.358-11.465-12.908l-39.083-3.224C259.905,114.443,260.062,118.105,260.536,121.643z"/><path d="M50.291,139.186c-0.257,0.003-0.516,0.005-0.776,0.005c-0.416,0-0.835-0.005-1.257-0.014l-4.032,0.107   c-0.121,0.004-0.259,0.006-0.396,0.006c-0.584,0-1.16-0.045-1.731-0.112l10.17,28.74l-13.624,51.908   c-1.752,6.677,2.24,13.511,8.918,15.264c1.063,0.279,2.131,0.412,3.182,0.412c5.543,0,10.608-3.716,12.082-9.33l14.6-55.627   c0.636-2.423,0.529-4.981-0.307-7.343l-8.691-24.56l-14.079,0.374C53.262,139.112,52.042,139.163,50.291,139.186z"/><path d="M90.414,6.502C86.35,2.483,80.764,0,74.597,0c-12.426,0-22.5,10.074-22.5,22.5c0,12.428,10.074,22.5,22.5,22.5   c11.399,0,20.81-8.476,22.291-19.469c-2.029-0.103-4.17-0.322-6.371-0.664c-11.521-1.793-20.404-6.308-20.145-10.172   c1.524,3.461,10.442,6.12,21.247,6.12c8.154,0,15.247-1.513,18.892-3.742c1.663-1.017,2.61-2.184,2.61-3.424   c0-3.787-8.822-6.88-19.987-7.141c-0.502-0.012-1.003-0.026-1.515-0.026C91.212,6.482,90.815,6.494,90.414,6.502z"/><path d="M81.286,95.929c0.357,0.048,0.715,0.072,1.071,0.072c1.786,0,3.532-0.598,4.951-1.716l33-26   c3.471-2.734,4.067-7.764,1.333-11.235c-2.735-3.471-7.766-4.065-11.235-1.333L83.897,76.603L66.025,52.344   c-0.185-0.251-0.384-0.484-0.591-0.707c-1.714-2.449-4.025-4.249-6.87-4.958c-6.916-1.725-16.35,0.993-22.361,9.872l14.156-3.165   c0.735-0.165,1.487-0.248,2.236-0.248c4.729,0,8.91,3.354,9.944,7.976c0.595,2.659,0.118,5.391-1.342,7.691   c-1.459,2.301-3.728,3.895-6.387,4.489l-26.618,5.952c-2.865,12.685-3.13,24.015-1.257,40.103   c1.394,7.173,4.359,11.474,8.026,14.033c2.27,2.29,5.41,3.709,8.868,3.709c0.112,0,0.225-0.001,0.338-0.005l4.085-0.108   c0.677,0.015,1.349,0.017,2.011,0.009c1.446-0.018,2.764-0.058,3.958-0.167l35.902-0.953l8.45,42.654   c1.179,5.951,6.402,10.072,12.248,10.072c0.806,0,1.623-0.078,2.443-0.24c6.771-1.342,11.174-7.919,9.832-14.691l-10.5-53   c-1.162-5.865-6.309-10.07-12.258-10.07c-0.111,0-0.224,0.001-0.336,0.005l-37.907,1.006c0.084-10.939,2.144-22.292,4.1-32.051   l9.721,13.196C77.201,94.49,79.139,95.639,81.286,95.929z"/><path d="M239.813,57.609c1.902-2.799,5.06-4.47,8.446-4.47c2.046,0,4.025,0.609,5.724,1.763l10.557,7.17   c-0.51-7.279-4.175-13.864-10.31-15.393c-1.735-0.433-3.629-0.58-5.588-0.427c-0.574-0.081-1.163-0.107-1.764-0.059l-34,2.75   c-3.256,0.264-6.025,2.48-6.995,5.599l-12.333,39.667c-1.312,4.219,1.046,8.703,5.265,10.014c0.791,0.246,1.591,0.363,2.378,0.363   c3.41,0,6.57-2.199,7.637-5.627l10.728-34.504l8.756-0.708c-0.01,0.028-0.021,0.054-0.03,0.082   c-6.805,20.174-8.268,33.305-5.682,55.52c2.068,10.641,7.59,14.97,13.742,16.649l17.815,32.974l-13.347,50.854   c-1.752,6.677,2.24,13.511,8.918,15.264c1.063,0.279,2.131,0.412,3.182,0.412c5.543,0,10.608-3.716,12.082-9.33l14.6-55.627   c0.805-3.066,0.414-6.325-1.094-9.114l-20.049-37.107c-0.014-0.751-0.045-1.545-0.095-2.389   c-1.631-12.167,0.328-25.77,2.582-37.649L242.52,71.777C237.868,68.617,236.654,62.261,239.813,57.609z"/><path d="M307.847,50.817l-28.361,24.064l-26.739-18.16c-3.654-2.482-8.629-1.532-11.113,2.124   c-2.482,3.655-1.531,8.63,2.123,11.113l31.771,21.578c1.362,0.925,2.931,1.382,4.494,1.382c1.849,0,3.691-0.64,5.177-1.9l33-28   c3.369-2.858,3.783-7.907,0.924-11.276C316.265,48.372,311.217,47.959,307.847,50.817z"/><path d="M286.081,6.502C282.017,2.483,276.431,0,270.263,0c-12.426,0-22.5,10.074-22.5,22.5c0,12.428,10.074,22.5,22.5,22.5   c11.399,0,20.81-8.476,22.291-19.469c-2.029-0.103-4.17-0.322-6.371-0.664c-11.521-1.793-20.404-6.308-20.145-10.172   c1.524,3.461,10.442,6.12,21.247,6.12c8.154,0,15.247-1.513,18.892-3.742c1.663-1.017,2.61-2.184,2.61-3.424   c0-3.787-8.822-6.88-19.987-7.141c-0.502-0.012-1.003-0.026-1.515-0.026C286.878,6.482,286.482,6.494,286.081,6.502z"/><polygon points="168.649,98.843 135.687,98.843 135.687,102.843 168.649,102.843 168.649,110.919 178.725,100.843 168.649,90.767     "/><path d="M54.331,71.147c4.312-0.964,7.025-5.241,6.062-9.553c-0.965-4.312-5.241-7.028-9.554-6.062l-33.916,7.583   c-2.948,0.659-5.274,2.923-6.012,5.853L0.244,111.301c-1.08,4.285,1.518,8.633,5.803,9.713c0.656,0.165,1.313,0.244,1.96,0.244   c3.579,0,6.837-2.419,7.751-6.047l9.463-37.556L54.331,71.147z"/></g></svg>