<svg xmlns="http://www.w3.org/2000/svg" xmlns:xlink="http://www.w3.org/1999/xlink" version="1.1" x="0px" y="0px" viewBox="0 0 303.378 325.11249999999995" style="enable-background:new 0 0 303.378 260.09;" xml:space="preserve"><g><path d="M6.981,167.901c0.346,0.044,0.689,0.066,1.03,0.066c3.964,0,7.406-2.945,7.924-6.981   c3.871-30.122,8.666-47.733,12.745-57.986v46.239c0,0.292,0.019,0.579,0.051,0.863l-9.45,95.638   c-0.672,6.797,4.295,12.848,11.088,13.519c6.795,0.671,12.849-4.29,13.521-11.087l9.012-91.204h5.647l9.012,91.204   c0.672,6.797,6.726,11.759,13.521,11.087c6.793-0.671,11.759-6.722,11.088-13.519l-9.449-95.63   c0.032-0.286,0.052-0.576,0.052-0.871v-46.245c4.077,10.251,8.871,27.861,12.743,57.991c0.519,4.037,3.96,6.982,7.924,6.981   c0.34,0,0.684-0.022,1.03-0.066c4.382-0.563,7.479-4.572,6.915-8.954c-5.941-46.232-15.306-74.105-27.833-82.845   c-3.586-2.502-6.721-3.02-8.813-2.983H36.692c-2.092-0.032-5.218,0.49-8.793,2.983c-12.527,8.74-21.891,36.613-27.833,82.845   C-0.497,163.328,2.599,167.338,6.981,167.901z"/><path d="M55.725,67.42c12.428,0,22.5-10.073,22.5-22.5c0-12.427-10.072-22.5-22.5-22.5c-12.426,0-22.5,10.073-22.5,22.5   C33.225,57.346,43.3,67.42,55.725,67.42z M37.98,38.071c1.388,4.676,8.793,8.249,17.746,8.249s16.358-3.573,17.746-8.249   c0.153,0.516,0.254,1.042,0.254,1.582c0,5.434-8.059,9.836-18,9.836s-18-4.402-18-9.836C37.726,39.113,37.827,38.588,37.98,38.071z   "/><path d="M237.432,66.767c12.428,0,22.5-10.073,22.5-22.5c0-12.427-10.072-22.5-22.5-22.5c-12.426,0-22.5,10.073-22.5,22.5   C214.932,56.694,225.007,66.767,237.432,66.767z M219.688,37.418c1.388,4.676,8.793,8.249,17.746,8.249s16.358-3.573,17.746-8.249   c0.153,0.516,0.254,1.042,0.254,1.582c0,5.434-8.059,9.836-18,9.836s-18-4.402-18-9.836   C219.433,38.46,219.534,37.935,219.688,37.418z"/><path d="M295.226,259.223c6.289-2.494,9.365-9.614,6.871-15.903c-26.407-66.582-35.805-103.227-37.618-110.781v-46.68l35.46-24.618   c3.147-2.185,4.303-6.293,2.758-9.798L282.13,4.776c-1.782-4.042-6.502-5.877-10.547-4.094c-4.043,1.782-5.876,6.504-4.094,10.547   l17.907,40.631l-29.68,20.605H219.15L189.47,51.86l17.907-40.631c1.782-4.043-0.051-8.765-4.094-10.547   c-4.045-1.784-8.765,0.052-10.547,4.094l-20.568,46.667c-1.545,3.505-0.389,7.614,2.758,9.798l35.461,24.618v46.681   c-1.813,7.553-11.21,44.197-37.618,110.78c-2.494,6.289,0.582,13.409,6.871,15.903c1.482,0.588,3.01,0.866,4.513,0.866   c4.875,0,9.484-2.93,11.391-7.737c17.058-43.011,27.159-73.688,32.817-92.683h18.146c5.657,18.995,15.758,49.672,32.817,92.683   c1.907,4.807,6.516,7.737,11.391,7.737C292.217,260.09,293.745,259.811,295.226,259.223z"/><polygon points="166.339,128.043 176.415,117.966 166.339,107.89 166.339,115.966 133.377,115.966 133.377,119.966    166.339,119.966  "/></g></svg>