<svg xmlns="http://www.w3.org/2000/svg" xmlns:xlink="http://www.w3.org/1999/xlink" version="1.1" x="0px" y="0px" viewBox="0 0 225.101 308.51125" style="enable-background:new 0 0 225.101 246.809;" xml:space="preserve"><g><polygon points="112.135,125.924 102.058,115.848 102.058,123.924 69.096,123.924 69.096,127.924 102.058,127.924 102.058,136  "/><path d="M32.828,49.679c-8.537-2.129-20.912,2.508-25.947,17.15C0.076,87.003-1.386,100.134,1.2,122.349   c1.903,9.792,6.731,14.235,12.283,16.191c2.767,16.855,6.642,52.512-0.777,93.017c-1.244,6.79,3.253,13.304,10.043,14.548   c0.761,0.139,1.519,0.206,2.266,0.206c5.918,0,11.177-4.221,12.281-10.25c6.664-36.385,5.103-68.766,2.595-89.631   c-0.967,2.042-2.61,3.779-4.801,4.829c-1.39,0.665-2.87,1.002-4.4,1.002c-3.906,0-7.52-2.275-9.206-5.797   c-18.559-38.755-5.68-78.924-5.122-80.614c1.382-4.193,5.275-7.01,9.687-7.01c1.083,0,2.158,0.173,3.195,0.516   c5.331,1.756,8.247,7.525,6.5,12.86c-0.102,0.316-9.762,31.271,2.247,61.095c-0.332-1.934-0.649-3.638-0.936-5.099   c0.001-1.006-0.031-2.091-0.101-3.277c-2.305-17.191,2.555-37.268,5.295-51.264C45.117,63.718,41.364,51.806,32.828,49.679z"/><path d="M33.652,71.532c1.373-4.192-0.907-8.706-5.099-10.087c-4.194-1.384-8.719,0.896-10.103,5.094   c-0.546,1.656-13.164,41.01,5.017,78.976c1.375,2.871,4.237,4.547,7.221,4.547c1.158,0,2.335-0.253,3.449-0.786   c3.985-1.909,5.668-6.687,3.76-10.671C22.569,106.591,33.528,71.916,33.652,71.532z"/><path d="M51.179,6.502C47.115,2.483,41.529,0,35.362,0c-12.426,0-22.5,10.074-22.5,22.5c0,12.428,10.074,22.5,22.5,22.5   c11.399,0,20.81-8.476,22.291-19.469c-2.029-0.103-4.17-0.322-6.371-0.664c-11.521-1.793-20.404-6.308-20.145-10.172   c1.524,3.461,10.442,6.12,21.247,6.12c8.154,0,15.247-1.513,18.892-3.742c1.663-1.017,2.61-2.184,2.61-3.424   c0-3.787-8.822-6.88-19.987-7.14c-0.502-0.012-1.003-0.026-1.515-0.026C51.977,6.482,51.58,6.494,51.179,6.502z"/><path d="M213.815,163.587L174.03,159.7c-0.074-14.802,3.622-30.503,5.885-42.06c2.869-9.953-0.885-21.865-9.42-23.992   c-8.537-2.129-20.912,2.508-25.947,17.15c-6.805,20.174-8.268,33.305-5.682,55.52c1.022,5.258,2.89,8.968,5.258,11.586l2.685,37.52   l-43.101,6.005c-6.837,0.953-11.608,7.269-10.655,14.105c0.871,6.253,6.226,10.777,12.365,10.777c0.574,0,1.156-0.04,1.741-0.121   l54.678-7.618c6.516-0.908,11.212-6.711,10.743-13.273l-2.097-29.299c-0.696,0.149-1.405,0.23-2.127,0.23   c-3.906,0-7.52-2.275-9.206-5.797c-18.559-38.755-5.68-78.924-5.122-80.614c1.382-4.193,5.274-7.01,9.685-7.01   c1.084,0,2.159,0.173,3.196,0.516c5.331,1.756,8.247,7.525,6.5,12.86c-0.106,0.331-10.744,34.355,4.14,65.438   c0.563,1.176,0.87,2.406,0.961,3.634l20.856,2.038l-2.908,46.229c-0.434,6.891,4.8,12.827,11.69,13.261   c0.267,0.017,0.532,0.024,0.797,0.024c6.544,0,12.046-5.093,12.463-11.715l3.667-58.281   C225.498,170.09,220.519,164.242,213.815,163.587z"/><path d="M171.319,115.5c1.373-4.192-0.907-8.706-5.099-10.087c-4.196-1.385-8.719,0.896-10.103,5.094   c-0.546,1.656-13.164,41.01,5.017,78.976c1.375,2.871,4.237,4.547,7.221,4.547c1.158,0,2.335-0.253,3.449-0.786   c3.985-1.909,5.668-6.687,3.76-10.671C160.235,150.56,171.194,115.885,171.319,115.5z"/><path d="M211.552,57.617c0-3.787-8.822-6.88-19.987-7.141c-0.502-0.012-1.003-0.026-1.515-0.026c-0.406,0-0.803,0.013-1.204,0.02   c-4.064-4.019-9.65-6.502-15.818-6.502c-12.426,0-22.5,10.074-22.5,22.5c0,12.428,10.074,22.5,22.5,22.5   c11.399,0,20.81-8.476,22.291-19.469c-2.029-0.103-4.17-0.322-6.371-0.664c-11.521-1.793-20.404-6.308-20.145-10.172   c1.524,3.461,10.442,6.12,21.247,6.12c8.154,0,15.247-1.513,18.892-3.742C210.605,60.024,211.552,58.857,211.552,57.617z"/></g></svg>