<svg xmlns="http://www.w3.org/2000/svg" data-name="Layer 1" viewBox="0 0 48 60" x="0px" y="0px"><title>2-meditation</title><circle cx="23.99998" cy="6.77798" r="6.77798"/><path d="M46.73329,32.52584a3.06255,3.06255,0,0,0-3.35847-2.73364c-2.34612.24056-4.74723-.88052-7.13578-3.33247a28.75555,28.75555,0,0,1-4.122-5.6381c-.28188-.88477-2.30331-3.74207-3.01924-4.00283A9.06116,9.06116,0,0,0,24,15.34543a9.06115,9.06115,0,0,0-5.09768,1.47332c-.716.26071-2.7374,3.11811-3.01928,4.00274a28.75522,28.75522,0,0,1-4.1221,5.63824c-2.3885,2.4519-4.78976,3.57323-7.13573,3.33247a3.062,3.062,0,0,0-.62494,6.09211,12.49645,12.49645,0,0,0,1.27476.06543,12.89164,12.89164,0,0,0,5.60688-1.3123A18.77429,18.77429,0,0,0,16.1477,30.733c.089-.09143.17725-.1862.26573-.2798q.488,3.6835.94591,7.36691.07808.53279.18716,1.051-4.1003-.22674-8.18046-.74164a4.47527,4.47527,0,0,0-1.12176,8.88A125.74373,125.74373,0,0,0,24,48a125.74314,125.74314,0,0,0,15.7557-.99056,4.47527,4.47527,0,0,0-1.12176-8.88q-4.07711.51508-8.18046.74164.10836-.51785.18711-1.051.45682-3.68343.946-7.367c.08848.09365.17677.18842.26579.27985a18.77269,18.77269,0,0,0,5.2658,3.90445,12.891,12.891,0,0,0,5.60683,1.3123,12.49718,12.49718,0,0,0,1.27476-.06543A3.062,3.062,0,0,0,46.73329,32.52584Z"/></svg>