<svg xmlns="http://www.w3.org/2000/svg" xmlns:xlink="http://www.w3.org/1999/xlink" version="1.1" x="0px" y="0px" viewBox="0 0 237.332 385.88250000000005" style="enable-background:new 0 0 237.332 308.706;" xml:space="preserve"><g><path d="M158.664,50.446l-4.983-18.34c-1.475-5.428,1.742-11.043,7.169-12.518c0.876-0.238,1.778-0.359,2.681-0.359   c4.587,0,8.632,3.095,9.837,7.527l2.093,7.703c5.261-8.781,4.024-18.131-0.145-23.657c-5.296-7.023-17.726-5.82-25.765,0.713   c-11.811,7.995-28.387,20.319-45.111,24.921c-13.163,4.697-12.47,8.842-8.993,17.321c0.051,0.125,0.104,0.25,0.156,0.375   C71.157,64.672,37.925,78.308,8.6,87.947c-6.559,2.156-10.127,9.22-7.972,15.778c1.73,5.263,6.62,8.6,11.873,8.6   c1.293,0,2.61-0.202,3.905-0.628c55.66-18.297,122.446-49.41,125.262-50.726c0.84-0.393,1.611-0.872,2.318-1.414   C149.122,56.978,153.845,54.029,158.664,50.446z"/><path d="M228.772,26.209c0.942-5.636-0.243-11.631-3.797-16.672c-7.16-10.156-21.198-12.585-31.353-5.425   c-10.158,7.161-12.585,21.199-5.426,31.354c6.567,9.315,18.908,12.106,28.745,6.984c-1.081-1.713-2.133-3.583-3.118-5.573   c-5.171-10.448-6.6-20.306-3.295-22.323c-1.947,3.245,1.017,12.061,7.241,20.889c4.698,6.665,10.022,11.59,13.945,13.284   c1.79,0.773,3.289,0.874,4.302,0.159c3.093-2.181,0.54-11.173-5.68-20.448c-0.28-0.418-0.558-0.836-0.853-1.254   C229.249,26.851,229.01,26.533,228.772,26.209z"/><path d="M161.427,21.711c-4.264,1.158-6.781,5.554-5.623,9.817l20.423,75.166c0.968,3.562,4.194,5.904,7.715,5.904   c0.694,0,1.4-0.091,2.103-0.282c4.264-1.158,6.781-5.554,5.623-9.817l-20.423-75.166C170.086,23.069,165.689,20.55,161.427,21.711z   "/><polygon points="130.024,128.762 130.024,161.724 121.948,161.724 132.024,171.8 142.1,161.724 134.024,161.724 134.024,128.762     "/><path d="M228.772,221.209c0.942-5.636-0.243-11.631-3.797-16.672c-7.16-10.156-21.198-12.585-31.353-5.425   c-10.158,7.161-12.585,21.199-5.426,31.354c6.567,9.315,18.908,12.106,28.745,6.984c-1.081-1.713-2.133-3.583-3.118-5.573   c-5.171-10.448-6.6-20.306-3.295-22.323c-1.947,3.245,1.017,12.061,7.241,20.889c4.698,6.665,10.022,11.59,13.945,13.284   c1.79,0.773,3.289,0.874,4.302,0.159c3.093-2.181,0.54-11.173-5.68-20.448c-0.28-0.418-0.558-0.836-0.853-1.254   C229.249,221.851,229.01,221.533,228.772,221.209z"/><path d="M148.185,252.314c3.57-2.025,7-4.281,10.48-6.869l-4.983-18.34c-1.475-5.428,1.742-11.043,7.169-12.518   c0.875-0.239,1.779-0.36,2.683-0.36c4.586,0,8.63,3.096,9.834,7.528l2.093,7.703c5.261-8.781,4.024-18.131-0.145-23.657   c-5.296-7.023-17.726-5.82-25.765,0.713c-11.811,7.995-28.387,20.319-45.111,24.921c-13.163,4.697-12.47,8.842-8.993,17.321   c0.051,0.125,0.104,0.25,0.156,0.375C71.157,259.672,37.925,273.308,8.6,282.947c-6.559,2.156-10.127,9.22-7.972,15.778   c1.73,5.263,6.62,8.6,11.873,8.6c1.293,0,2.61-0.202,3.905-0.628c35.185-11.566,74.809-28.251,99.916-39.295l12.943,4.667   l-25.909,12.954c-6.175,3.088-8.677,10.596-5.59,16.771c2.19,4.381,6.604,6.913,11.19,6.913c1.878,0,3.786-0.426,5.581-1.322l52-26   c0.572-0.286,1.114-0.613,1.626-0.975l-6.293-23.16L148.185,252.314z"/><path d="M171.245,222.333c-1.159-4.264-5.556-6.786-9.818-5.622c-4.264,1.158-6.781,5.554-5.623,9.817l20.423,75.166   c0.968,3.562,4.194,5.904,7.715,5.904c0.694,0,1.4-0.091,2.103-0.282c4.264-1.158,6.781-5.554,5.623-9.817L171.245,222.333z"/></g></svg>