<svg xmlns="http://www.w3.org/2000/svg" xmlns:xlink="http://www.w3.org/1999/xlink" version="1.1" x="0px" y="0px" viewBox="0 0 497.404 349.4975" style="enable-background:new 0 0 497.404 279.598;" xml:space="preserve"><g><path d="M189.162,238.781c-0.208,2.717-1.463,5.189-3.531,6.962c-1.847,1.584-4.203,2.457-6.635,2.457   c-1.623,0-3.192-0.396-4.604-1.11l1.107,11.277c1.438-0.618,2.898-1.259,4.407-1.95c14.04-6.523,17.374-19.313,14.371-27.583   c-2.227-6.139-9.545-9.091-17.096-8.619l9.556,11.146C188.509,233.429,189.371,236.064,189.162,238.781z"/><path d="M150.025,266.231c1.903-0.322,3.776-0.704,5.636-1.137l-3.71-37.801c-10.528,2.986-22.152,5.548-32.952,5.229   c-13.961,0.624-14.517,4.79-13.684,13.916c0.012,0.134,0.026,0.27,0.04,0.405c-26.457,2.896-62.22,6.17-93.098,6.772   c-6.902,0.135-12.389,5.84-12.254,12.742c0.133,6.819,5.703,12.256,12.493,12.256c0.083,0,0.166-0.001,0.249-0.002   c58.58-1.144,131.558-11.272,134.636-11.702C148.304,266.779,149.186,266.545,150.025,266.231z"/><path d="M242.623,249.98c2.31-5.228,2.644-11.332,0.449-17.097c-4.421-11.612-17.42-17.443-29.033-13.022   c-11.615,4.422-17.444,17.421-13.023,29.033c4.056,10.653,15.325,16.432,26.125,13.904c-0.625-1.933-1.183-4.011-1.646-6.189   c-2.422-11.404-1.365-21.308,2.337-22.444c-2.69,2.661-2.002,11.938,1.841,22.032c2.901,7.621,6.839,13.711,10.221,16.324   c1.543,1.192,2.97,1.661,4.129,1.22c3.537-1.347,3.291-10.691-0.438-21.217c-0.168-0.474-0.334-0.948-0.516-1.427   C242.925,250.718,242.772,250.352,242.623,249.98z"/><path d="M154.619,17.181c-12.18,7.422-29.325,18.939-46.25,22.737c-13.372,4.062-12.878,8.236-9.81,16.872   c0.045,0.127,0.092,0.254,0.138,0.381c-24.922,9.361-58.768,21.393-88.519,29.62c-6.654,1.84-10.556,8.726-8.716,15.379   c1.532,5.54,6.56,9.171,12.041,9.171c1.103,0,2.224-0.147,3.338-0.455c56.471-15.616,124.667-43.504,127.542-44.684   c0.857-0.352,1.649-0.793,2.38-1.3c3.543-1.573,6.908-3.322,10.252-5.322V29.43c0-5.625,4.576-10.2,10.2-10.2s10.2,4.576,10.2,10.2   v14.532c7.793-9.15,7.279-19.95,2.973-26.263C175.434,10.431,162.961,11.039,154.619,17.181z"/><path d="M232.463,26.209c0.942-5.636-0.243-11.631-3.797-16.672c-7.16-10.156-21.198-12.585-31.353-5.425   c-10.158,7.161-12.585,21.199-5.426,31.354c6.567,9.315,18.908,12.106,28.745,6.984c-1.081-1.713-2.133-3.583-3.118-5.573   c-5.171-10.448-6.6-20.306-3.295-22.323c-1.948,3.244,1.017,12.061,7.24,20.889c4.698,6.665,10.022,11.59,13.945,13.284   c1.79,0.773,3.289,0.874,4.302,0.159c3.093-2.181,0.54-11.173-5.68-20.448c-0.28-0.418-0.558-0.836-0.853-1.254   C232.94,26.851,232.7,26.533,232.463,26.209z"/><path d="M175.215,29.43c0-4.418-3.582-8-8-8s-8,3.582-8,8v74.167c0,4.418,3.582,8,8,8s8-3.582,8-8V29.43z"/><polygon points="133.715,128.762 133.715,161.724 125.639,161.724 135.715,171.8 145.791,161.724 137.715,161.724 137.715,128.762     "/><path d="M462.97,83.547c-10.536,6.59-13.734,20.472-7.145,31.007c6.59,10.536,20.472,13.734,31.007,7.145   c10.536-6.59,13.735-20.471,7.145-31.007C487.388,80.157,473.505,76.958,462.97,83.547z M488.912,115.092   c-4.607,2.881-12.612-1.617-17.884-10.045s-5.813-17.595-1.206-20.477c0.458-0.286,0.957-0.48,1.476-0.623   c-3.228,3.657-2.331,11.829,2.417,19.419s11.703,11.974,16.404,10.671C489.762,114.442,489.369,114.806,488.912,115.092z"/><path d="M286.204,200.581c-3.454,5.817-1.538,13.333,4.279,16.787c1.961,1.165,4.115,1.719,6.242,1.719   c4.182,0,8.256-2.142,10.545-5.998c15.39-25.92,41.95-46.151,58.248-56.921c2.018-1.334,3.879-2.523,5.542-3.559l1.698,3.631   l-11.031,5.159c-15.844,11.015-38.01,29.067-51.767,51.507l80.273-37.539l0,0l52.168-24.396l8.794,67.519   c0.525,4.03,3.964,6.968,7.923,6.968c0.345,0,0.693-0.022,1.043-0.068c4.381-0.57,7.47-4.585,6.9-8.966l-9.892-75.954   c-0.1-0.767-0.311-1.492-0.606-2.167c-0.105-0.738-0.318-1.472-0.65-2.182l-15.893-33.986l-15.104-75.86   c-0.863-4.333-5.08-7.144-9.408-6.284c-4.333,0.863-7.147,5.075-6.284,9.408l14.093,70.783l-53.535,25.035   c-0.559,0.198-1.112,0.424-1.652,0.71c-0.145,0.077-0.509,0.271-1.06,0.574c-0.184,0.094-0.365,0.191-0.538,0.298   c-2.77,1.54-8.79,5.015-16.536,10.219C331.591,149.383,303.471,171.501,286.204,200.581z"/><polygon points="293.945,84.624 293.945,88.624 326.906,88.624 326.906,96.7 336.983,86.624 326.906,76.548 326.906,84.624  "/><path d="M158.586,272.378c0.406,4.132,3.886,7.22,7.952,7.22c0.262,0,0.526-0.013,0.791-0.039c4.397-0.432,7.612-4.347,7.181-8.743   l-4.062-41.385l2.276,0.664l1.398,14.246c1.423,1.095,3.143,1.659,4.874,1.659c1.842,0,3.694-0.633,5.203-1.927   c3.354-2.875,3.742-7.926,0.867-11.28l-17.777-20.735c-0.092-0.107-0.192-0.203-0.289-0.304c-0.06-0.063-0.117-0.128-0.179-0.188   c-0.141-0.139-0.289-0.269-0.438-0.396c-0.043-0.037-0.085-0.075-0.129-0.111c-0.165-0.135-0.336-0.259-0.509-0.379   c-0.036-0.024-0.07-0.05-0.106-0.074c-0.178-0.118-0.36-0.227-0.545-0.33c-0.041-0.023-0.081-0.047-0.123-0.069   c-0.178-0.095-0.36-0.181-0.544-0.261c-0.058-0.025-0.114-0.052-0.172-0.076c-0.17-0.07-0.341-0.131-0.515-0.189   c-0.079-0.026-0.157-0.053-0.237-0.077c-0.159-0.047-0.319-0.087-0.48-0.124c-0.096-0.023-0.192-0.046-0.29-0.065   c-0.154-0.03-0.308-0.052-0.463-0.072c-0.105-0.014-0.209-0.029-0.314-0.039c-0.161-0.015-0.322-0.021-0.483-0.026   c-0.1-0.003-0.198-0.009-0.298-0.009c-0.179,0.001-0.358,0.012-0.537,0.025c-0.068,0.005-0.135,0.003-0.204,0.009   c-0.017,0.002-0.033,0.006-0.05,0.008c-0.199,0.021-0.396,0.053-0.594,0.089c-0.064,0.012-0.13,0.019-0.194,0.032   c-0.195,0.04-0.388,0.093-0.581,0.148c-0.063,0.018-0.128,0.031-0.19,0.051c-0.166,0.052-0.328,0.116-0.491,0.179   c-0.084,0.033-0.172,0.06-0.254,0.095c-0.12,0.051-0.235,0.113-0.353,0.17c-0.121,0.059-0.244,0.113-0.361,0.178   c-0.084,0.046-0.164,0.101-0.247,0.15c-0.146,0.087-0.292,0.173-0.432,0.269c-0.069,0.048-0.135,0.102-0.203,0.153   c-0.147,0.108-0.292,0.216-0.431,0.333c-0.015,0.013-0.031,0.023-0.045,0.035c-0.062,0.053-0.116,0.112-0.176,0.167   c-0.119,0.108-0.237,0.216-0.349,0.331c-0.091,0.093-0.175,0.191-0.26,0.288c-0.084,0.095-0.169,0.189-0.248,0.289   c-0.092,0.115-0.177,0.233-0.261,0.351c-0.065,0.091-0.131,0.181-0.192,0.275c-0.081,0.124-0.155,0.25-0.229,0.378   c-0.057,0.098-0.114,0.196-0.167,0.297c-0.064,0.122-0.122,0.247-0.179,0.372c-0.053,0.115-0.105,0.229-0.152,0.347   c-0.045,0.113-0.086,0.228-0.126,0.343c-0.047,0.134-0.093,0.268-0.132,0.405c-0.03,0.105-0.056,0.21-0.082,0.315   c-0.036,0.148-0.072,0.295-0.1,0.446c-0.02,0.105-0.034,0.21-0.049,0.316c-0.022,0.149-0.043,0.298-0.056,0.449   c-0.011,0.121-0.014,0.242-0.019,0.363c-0.006,0.135-0.013,0.269-0.012,0.405c0.001,0.153,0.012,0.306,0.022,0.458   c0.006,0.087,0.004,0.173,0.012,0.261l0.621,6.328l0.022,0.229L158.586,272.378z"/></g></svg>