<svg xmlns="http://www.w3.org/2000/svg" xmlns:xlink="http://www.w3.org/1999/xlink" version="1.1" x="0px" y="0px" viewBox="0 0 253.528 298.32375" style="enable-background:new 0 0 253.528 238.659;" xml:space="preserve"><g><path d="M155.376,120.636c-5.617,0-10.192-4.57-10.2-10.187c-0.007-5.624,4.563-10.206,10.187-10.213l11.287-0.017   c-3.154-5.641-8.223-9.131-13.115-10.12c-8.621-1.746-17.129,7.394-18.816,17.615c-3.542,13.816-7.781,34.031-17.25,48.564   c-6.74,12.242-3.473,14.887,4.751,18.93c3.268,1.607,6.924,3.084,10.753,3.458c0.636,0.111,1.284,0.188,1.951,0.199l43.189,0.699   l-32.464,38.542c-4.447,5.28-3.772,13.166,1.508,17.613c2.345,1.975,5.203,2.94,8.046,2.94c3.56,0,7.095-1.512,9.567-4.448   l49.416-58.667c3.108-3.69,3.815-8.841,1.815-13.233s-6.349-7.24-11.174-7.318l-45.491-0.736   c5.219-10.725,7.953-20.555,9.759-33.641l-13.706,0.02H155.376z"/><path d="M250.121,102.325h-0.005l-18.934,0.024c-0.161-0.01-0.32-0.024-0.483-0.024c-0.003,0-0.007,0-0.011,0l-75.323,0.11   c-4.418,0.006-7.995,3.592-7.989,8.01c0.006,4.415,3.586,7.99,8,7.99c0.003,0,0.007,0,0.007,0l75.327-0.11   c4.418-0.006,22.821-10.716,22.818-12.598C253.525,103.847,252.001,102.325,250.121,102.325z"/><path d="M191.489,57.06c-2.765-5.002-7.424-8.961-13.342-10.701c-11.921-3.505-24.427,3.318-27.932,15.24   c-3.506,11.924,3.319,24.429,15.239,27.933c10.936,3.215,22.355-2.262,26.876-12.391c-1.917-0.671-3.909-1.484-5.924-2.433   c-10.546-4.97-17.792-11.804-16.457-15.438c0.491,3.752,8.294,8.816,18.656,11.863c7.823,2.3,15.055,2.849,19.181,1.737   c1.882-0.507,3.119-1.36,3.469-2.55c1.067-3.632-6.522-9.088-17.159-12.487c-0.479-0.153-0.957-0.308-1.448-0.452   C192.259,57.265,191.875,57.166,191.489,57.06z"/><polygon points="63.765,123.924 63.765,127.924 96.727,127.924 96.727,136 106.803,125.924 96.727,115.848 96.727,123.924  "/><path d="M15.31,139.093c4.51,14.961,11.035,47.286-2.031,82.565c-2.397,6.474,0.906,13.666,7.38,16.063   c1.432,0.53,2.898,0.782,4.34,0.782c5.08,0,9.856-3.12,11.724-8.162c10.782-29.112,10.577-56.194,7.561-76.251   c-1.173,0.454-2.424,0.701-3.676,0.702h-0.001c-3.892,0-7.39-2.162-9.129-5.641c-20.8-41.599-13.514-81.128-13.193-82.791   c0.926-4.792,5.134-8.269,10.008-8.269c0.647,0,1.3,0.063,1.94,0.186c5.514,1.064,9.141,6.417,8.086,11.932   c-0.034,0.186-1.988,11.284-0.508,27.233c1.268-8.675,3.103-16.947,4.439-23.77c2.869-9.953-0.885-21.865-9.42-23.992   c-8.537-2.129-20.912,2.508-25.947,17.15C0.077,87.003-1.386,100.134,1.2,122.349C3.309,133.202,9.011,137.486,15.31,139.093z"/><path d="M36.157,69.795c0.829-4.333-2.008-8.521-6.341-9.358c-4.342-0.836-8.534,2-9.372,6.339   c-0.314,1.632-7.478,40.434,13.001,81.391c1.401,2.804,4.227,4.424,7.161,4.424c1.202,0,2.424-0.272,3.572-0.847   c3.951-1.976,5.553-6.781,3.577-10.733C29.843,105.188,36.056,70.341,36.157,69.795z"/><path d="M54.179,6.502C50.115,2.483,44.529,0,38.362,0c-12.426,0-22.5,10.074-22.5,22.5c0,12.428,10.074,22.5,22.5,22.5   c11.399,0,20.81-8.476,22.291-19.469c-2.029-0.103-4.17-0.322-6.371-0.664c-11.521-1.793-20.404-6.308-20.145-10.172   c1.524,3.461,10.442,6.12,21.247,6.12c8.154,0,15.247-1.513,18.892-3.743c1.663-1.017,2.61-2.184,2.61-3.424   c0-3.787-8.822-6.88-19.987-7.14c-0.502-0.012-1.003-0.026-1.515-0.026C54.977,6.482,54.58,6.494,54.179,6.502z"/></g></svg>